# xmcd
#
# Track frame offsets:
#	150
#	20225
#	46897
#	65497
#	85372
#	108395
#	129322
#	140327
#	158250
#	180607
#	191520
#
# Disc length: 3052 seconds
#
# Revision: 1
# Processed by: cddbd v1.5.1PL0 Copyright (c) Steve Scherf et al.
# Submitted via: CDex 1.50Beta5
#
DISCID=8d0bea0b
DTITLE=キリンジ - 47’45”
DYEAR=1999
DGENRE=
TTITLE0=Drive me crazy
TTITLE1=耳をうずめて
TTITLE2=唐変木のためのガイダンス
TTITLE3=恋の祭典
TTITLE4=BBQパーティー
TTITLE5=牡牛座ラプソディ
TTITLE6=くよくよするなよ
TTITLE7=銀砂子のピンボール
TTITLE8=ダンボールの宮殿
TTITLE9=V.I.P.
TTITLE10=口実
EXTD=
EXTT0=
EXTT1=
EXTT2=
EXTT3=
EXTT4=
EXTT5=
EXTT6=
EXTT7=
EXTT8=
EXTT9=
EXTT10=
PLAYORDER=
